<svg width="235" height="67" viewBox="0 0 235 67" fill="none" xmlns="http://www.w3.org/2000/svg">
    <path d="M88.65 24.056h-4.558v23.292h-4.518V24.056h-4.558v-3.973h13.632l.002 3.973zM93.327 47.348V20.083h11.956v3.973h-7.44v7.477h6.233v3.973h-6.232v7.868h7.555v3.974H93.327zM121.755 43.374h-2.532l-4.089-12.697v16.67h-4.206V20.084h4.284l5.256 15.852 5.298-15.852h4.44v27.265h-4.359V30.677l-4.092 12.697zM150.343 25.847v5.18c0 4.126-2.727 5.764-6.856 5.764h-2.531v10.557h-4.517V20.083h7.048c4.129 0 6.856 1.635 6.856 5.764zm-4.519.701c0-1.947-1.013-2.492-2.492-2.492h-2.376v8.763h2.376c1.478 0 2.492-.546 2.492-2.493v-3.778zM169.193 41.894c0 4.206-2.648 5.763-6.775 5.763h-.156c-4.127 0-6.775-1.518-6.775-5.763V20.083h4.518v21.11c0 1.947.857 2.492 2.336 2.492 1.48 0 2.337-.545 2.337-2.493V20.083h4.518l-.003 21.81zM183.838 29.82V26c0-1.713-.973-2.336-2.298-2.336-1.325 0-2.297.623-2.297 2.337v1.869c0 1.402.467 2.026 1.752 2.766l3.193 1.791c2.61 1.478 4.169 2.687 4.169 5.609v3.933c0 4.207-2.61 5.687-6.738 5.687h-.078c-4.127 0-6.738-1.441-6.738-5.687v-4.751h4.441v4.126c0 1.675.974 2.415 2.337 2.415 1.364 0 2.336-.739 2.336-2.415v-2.142c0-1.402-.431-2.103-1.791-2.843l-3.155-1.792c-2.648-1.518-4.168-2.765-4.168-5.608v-3.583c0-4.05 2.961-5.609 6.7-5.609h.078c3.738 0 6.699 1.558 6.699 5.609v4.44l-4.442.003zM204.557 47.348V20.083h11.025v2.531h-8.219v9.66h7.012v2.492h-7.012v10.048h8.335v2.532l-11.141.002zM229.211 33.403l5.686 13.943h-2.999l-4.44-11.45-4.401 11.45h-2.921l5.764-14.06-5.335-13.203h2.999l4.05 10.71 3.778-10.71h2.921l-5.102 13.32zM0 16.269l12.068 12.503h41.678L27.03 0v16.269H0zM53.746 49.946 41.68 37.443H0l26.718 28.771V49.946h27.028zM230.69 56.048c.02 0 .037.007.049.021.016.01.025.025.025.042v.629c0 .017-.009.033-.025.047a.073.073 0 0 1-.049.016h-1.078c-.021 0-.031.009-.031.026v2.851c0 .018-.008.034-.025.047a.07.07 0 0 1-.049.016h-.874a.102.102 0 0 1-.056-.016.071.071 0 0 1-.018-.047v-2.85c0-.018-.011-.027-.031-.027h-1.041a.096.096 0 0 1-.055-.016.068.068 0 0 1-.019-.047v-.629c0-.017.006-.031.019-.042a.08.08 0 0 1 .055-.021h3.203zM233.972 56.09c.016-.028.045-.042.086-.042h.868c.021 0 .037.007.05.021.016.01.024.025.024.042v3.569a.062.062 0 0 1-.024.047.075.075 0 0 1-.05.016h-.874a.102.102 0 0 1-.056-.016.071.071 0 0 1-.018-.047v-2.122c0-.014-.004-.021-.013-.021-.008 0-.016.005-.024.016l-.53.728c-.016.028-.045.042-.086.042h-.437c-.041 0-.07-.014-.087-.042l-.535-.734c-.009-.01-.017-.016-.025-.016s-.012.007-.012.022v2.127c0 .018-.009.034-.025.047a.073.073 0 0 1-.049.016h-.875a.099.099 0 0 1-.055-.016.068.068 0 0 1-.019-.047v-3.569c0-.017.006-.031.019-.042a.082.082 0 0 1 .055-.021h.868c.037 0 .066.014.087.042l.856 1.151c.012.021.024.021.037 0l.844-1.15z" fill="#00B2E3"/>
</svg>
